<svg width="24" height="24" viewBox="0 0 24 24" fill="none" xmlns="http://www.w3.org/2000/svg">
<path d="M11.2308 10.7115H12V17.6346H12.7692M22 12.25C22 14.9022 20.9464 17.4457 19.0711 19.3211C17.1957 21.1964 14.6522 22.25 12 22.25C9.34784 22.25 6.8043 21.1964 4.92893 19.3211C3.05357 17.4457 2 14.9022 2 12.25C2 9.59784 3.05357 7.0543 4.92893 5.17893C6.8043 3.30357 9.34784 2.25 12 2.25C14.6522 2.25 17.1957 3.30357 19.0711 5.17893C20.9464 7.0543 22 9.59784 22 12.25Z" stroke="#CFD8FA" stroke-width="2" stroke-linecap="round" stroke-linejoin="round"/>
<path d="M12.7728 7.2497C12.7728 7.45371 12.6918 7.64937 12.5475 7.79363C12.4033 7.93789 12.2076 8.01893 12.0036 8.01893C11.7996 8.01893 11.6039 7.93789 11.4597 7.79363C11.3154 7.64937 11.2344 7.45371 11.2344 7.2497C11.2344 7.04569 11.3154 6.85003 11.4597 6.70577C11.6039 6.56151 11.7996 6.48047 12.0036 6.48047C12.2076 6.48047 12.4033 6.56151 12.5475 6.70577C12.6918 6.85003 12.7728 7.04569 12.7728 7.2497Z" fill="#CFD8FA" stroke="#CFD8FA"/>
</svg>
