<svg width="24" height="24" viewBox="0 0 24 24" fill="none" xmlns="http://www.w3.org/2000/svg">
<g clip-path="url(#clip0_546_27454)">
<path d="M13.8333 6.16668H10V12.04H13.86C14.6775 12.0764 15.4764 11.7887 16.0831 11.2394C16.6897 10.6902 17.0551 9.9238 17.1 9.10668C17.0795 8.69881 16.9787 8.299 16.8033 7.93023C16.6278 7.56145 16.3812 7.23097 16.0777 6.95778C15.7741 6.68458 15.4196 6.47406 15.0344 6.3383C14.6493 6.20254 14.2411 6.14421 13.8333 6.16668Z" fill="#71A2FF"/>
<path d="M12.0026 1.33325C9.89294 1.33325 7.83065 1.95884 6.07653 3.13091C4.3224 4.30298 2.95523 5.96888 2.14789 7.91796C1.34056 9.86704 1.12932 12.0118 1.5409 14.0809C1.95247 16.15 2.96838 18.0506 4.46014 19.5424C5.9519 21.0342 7.85252 22.0501 9.92165 22.4616C11.9908 22.8732 14.1355 22.662 16.0846 21.8546C18.0336 21.0473 19.6995 19.6801 20.8716 17.926C22.0437 16.1719 22.6693 14.1096 22.6693 11.9999C22.6693 9.17094 21.5455 6.45783 19.5451 4.45745C17.5447 2.45706 14.8316 1.33325 12.0026 1.33325ZM13.8359 13.7066H10.0026V14.6666H15.5293C15.7061 14.6666 15.8757 14.7368 16.0007 14.8618C16.1257 14.9869 16.1959 15.1564 16.1959 15.3333C16.1959 15.5101 16.1257 15.6796 16.0007 15.8047C15.8757 15.9297 15.7061 15.9999 15.5293 15.9999H10.0026V19.3333C10.0026 19.5543 9.91481 19.7662 9.75853 19.9225C9.60225 20.0788 9.39029 20.1666 9.16928 20.1666C8.94826 20.1666 8.7363 20.0788 8.58002 19.9225C8.42374 19.7662 8.33594 19.5543 8.33594 19.3333V15.9999H7.50261C7.3258 15.9999 7.15623 15.9297 7.0312 15.8047C6.90618 15.6796 6.83594 15.5101 6.83594 15.3333C6.83594 15.1564 6.90618 14.9869 7.0312 14.8618C7.15623 14.7368 7.3258 14.6666 7.50261 14.6666H8.30928V13.7066H7.50261C7.2816 13.7066 7.06963 13.6188 6.91335 13.4625C6.75707 13.3062 6.66928 13.0943 6.66928 12.8733C6.66928 12.6522 6.75707 12.4403 6.91335 12.284C7.06963 12.1277 7.2816 12.0399 7.50261 12.0399H8.30928V5.33325C8.30928 5.11224 8.39707 4.90028 8.55335 4.744C8.70963 4.58772 8.9216 4.49992 9.14261 4.49992H13.8093C15.0696 4.46037 16.2942 4.92255 17.2141 5.78498C18.134 6.64741 18.6742 7.83963 18.7159 9.09992C18.6741 10.356 18.1379 11.5448 17.224 12.4075C16.3101 13.2703 15.0924 13.7372 13.8359 13.7066Z" fill="#71A2FF"/>
</g>
<defs>
<clipPath id="clip0_546_27454">
<rect width="24" height="24" fill="white"/>
</clipPath>
</defs>
</svg>
