<svg width="24" height="24" viewBox="0 0 24 24" fill="none" xmlns="http://www.w3.org/2000/svg">
<path fill-rule="evenodd" clip-rule="evenodd" d="M17.5 11C17.5 14.5899 14.5899 17.5 11 17.5C7.41015 17.5 4.5 14.5899 4.5 11C4.5 7.41015 7.41015 4.5 11 4.5C14.5899 4.5 17.5 7.41015 17.5 11ZM15.5324 17.5931C14.2441 18.4805 12.6827 19 11 19C6.58172 19 3 15.4183 3 11C3 6.58172 6.58172 3 11 3C15.4183 3 19 6.58172 19 11C19 13.1937 18.117 15.1812 16.6871 16.6264L20.0303 19.9697C20.3232 20.2626 20.3232 20.7374 20.0303 21.0303C19.7374 21.3232 19.2626 21.3232 18.9697 21.0303L15.5324 17.5931Z" fill="#959799"/>
</svg>
